<?xml version="1.0" encoding="UTF-8"?>
<!DOCTYPE svg PUBLIC "-//W3C//DTD SVG 1.1//EN" "http://www.w3.org/Graphics/SVG/1.1/DTD/svg11.dtd">
<svg xmlns="http://www.w3.org/2000/svg" version="1.1" width="479px" height="479px" style="shape-rendering:geometricPrecision; text-rendering:geometricPrecision; image-rendering:optimizeQuality; fill-rule:evenodd; clip-rule:evenodd" xmlns:xlink="http://www.w3.org/1999/xlink">
<g><path style="opacity:0.943" fill="#fdfdfd" d="M 221.5,4.5 C 316.145,1.23584 389.645,38.5692 442,116.5C 461.698,149.432 472.865,185.098 475.5,223.5C 430.558,223.632 385.224,223.632 339.5,223.5C 337.347,207.202 331.347,192.535 321.5,179.5C 326.018,167.497 330.185,155.497 334,143.5C 321.523,146.096 309.023,148.763 296.5,151.5C 287.521,147.679 278.521,143.845 269.5,140C 252.335,134.917 235.002,134.25 217.5,138C 205.692,141.825 194.192,146.325 183,151.5C 170.501,149.1 158.001,146.767 145.5,144.5C 149.49,156.137 153.49,167.804 157.5,179.5C 148.584,192.902 142.584,207.569 139.5,223.5C 94.5412,224.661 49.5412,224.828 4.5,224C 10.7555,143.813 47.7555,82.146 115.5,39C 148.337,19.4652 183.671,7.96523 221.5,4.5 Z M 84.5,82.5 C 125.794,38.6012 176.794,15.9345 237.5,14.5C 237.664,17.1873 237.497,19.854 237,22.5C 196.094,22.9032 157.928,33.7365 122.5,55C 109.244,63.4509 96.5773,72.6175 84.5,82.5 Z M 94.5,93.5 C 125.557,59.9638 163.89,39.4638 209.5,32C 218.808,30.8355 228.142,30.0021 237.5,29.5C 237.5,31.8333 237.5,34.1667 237.5,36.5C 182.962,38.8881 135.296,57.8881 94.5,93.5 Z M 106.5,102.5 C 121.813,85.1491 140.146,71.6491 161.5,62C 185.639,51.0054 210.972,45.1721 237.5,44.5C 237.5,46.8333 237.5,49.1667 237.5,51.5C 187.674,53.267 144.007,70.267 106.5,102.5 Z M 108.5,121.5 C 133.589,91.1018 165.589,71.6018 204.5,63C 215.392,60.7633 226.392,59.5967 237.5,59.5C 237.5,61.5 237.5,63.5 237.5,65.5C 187.238,67.9046 144.238,86.5713 108.5,121.5 Z M 122.5,127.5 C 127.938,120.227 134.272,113.727 141.5,108C 169.784,86.5138 201.784,75.0138 237.5,73.5C 237.5,75.8333 237.5,78.1667 237.5,80.5C 193.015,81.59 154.682,97.2567 122.5,127.5 Z M 84.5,82.5 C 84.5,83.8333 83.8333,84.5 82.5,84.5C 82.8333,83.5 83.5,82.8333 84.5,82.5 Z M 226.5,88.5 C 230.167,88.5 233.833,88.5 237.5,88.5C 237.662,90.5273 237.495,92.5273 237,94.5C 201.415,95.526 169.582,107.193 141.5,129.5C 141.167,129.333 140.833,129.167 140.5,129C 164.715,106.059 193.382,92.5591 226.5,88.5 Z M 228.5,102.5 C 231.5,102.5 234.5,102.5 237.5,102.5C 237.662,104.527 237.495,106.527 237,108.5C 219.709,108.688 202.876,112.188 186.5,119C 177.145,123.342 168.145,128.175 159.5,133.5C 158.833,133.167 158.167,132.833 157.5,132.5C 178.405,115.868 202.072,105.868 228.5,102.5 Z M 232.5,116.5 C 234.527,116.338 236.527,116.505 238.5,117C 237.359,117.741 237.359,118.575 238.5,119.5C 218.237,120.814 199.237,126.314 181.5,136C 180.167,136.667 178.833,136.667 177.5,136C 194.464,125.402 212.798,118.902 232.5,116.5 Z M 126.5,144.5 C 126.783,143.711 127.283,143.044 128,142.5C 128.528,143.816 128.028,144.483 126.5,144.5 Z"/></g>
<g><path style="opacity:0.949" fill="#fdfdfd" d="M 209.5,156.5 C 228.834,159.131 248.168,159.131 267.5,156.5C 274.968,159.6 282.468,162.6 290,165.5C 298.429,163.101 306.929,161.101 315.5,159.5C 306.839,187.316 297.673,214.982 288,242.5C 287.333,243.833 286.667,243.833 286,242.5C 284.158,233.465 282.158,224.465 280,215.5C 270.523,253.733 261.856,292.067 254,330.5C 257.864,319.908 261.531,309.241 265,298.5C 265.667,297.167 266.333,297.167 267,298.5C 267.667,316.5 267.667,334.5 267,352.5C 258.023,381.742 249.356,411.076 241,440.5C 240.333,441.167 239.667,441.833 239,442.5C 230,412.167 221,381.833 212,351.5C 211.343,333.817 211.677,316.151 213,298.5C 217.78,308.834 221.78,319.501 225,330.5C 217.238,292.032 208.571,253.699 199,215.5C 197.276,224.625 195.109,233.625 192.5,242.5C 191.914,242.291 191.414,241.957 191,241.5C 181.127,214.38 171.96,187.046 163.5,159.5C 172.214,161.178 180.881,163.178 189.5,165.5C 196.43,162.866 203.097,159.866 209.5,156.5 Z"/></g>
<g><path style="opacity:0.981" fill="#fdfdfd" d="M 20.5,232.5 C 59.8187,233.246 99.152,233.58 138.5,233.5C 140.189,278.219 161.022,310.553 201,330.5C 201.459,338.711 200.959,346.878 199.5,355C 199.762,357.547 200.262,360.047 201,362.5C 214.209,399.627 226.709,436.96 238.5,474.5C 158.342,472.007 94.1748,439.007 46,375.5C 16.5983,333.125 2.43162,286.125 3.5,234.5C 9.31946,233.833 14.9861,233.167 20.5,232.5 Z"/></g>
<g><path style="opacity:0.88" fill="#fdfdfd" d="M 350.5,281.5 C 357.46,266.384 361.127,250.384 361.5,233.5C 364.833,233.5 368.167,233.5 371.5,233.5C 371.545,261.157 364.212,286.657 349.5,310C 349.728,310.399 350.062,310.565 350.5,310.5C 349.194,311.467 348.527,312.801 348.5,314.5C 350.262,313.738 351.262,312.404 351.5,310.5C 363.471,294.875 370.804,277.209 373.5,257.5C 375.364,249.745 376.364,241.745 376.5,233.5C 379.448,233.223 382.281,233.556 385,234.5C 384.737,266.783 375.904,296.45 358.5,323.5C 356.55,325.43 355.217,327.763 354.5,330.5C 356.89,329.109 358.557,327.109 359.5,324.5C 376.738,303.329 386.905,278.996 390,251.5C 390.333,246.167 390.667,240.833 391,235.5C 393.456,233.679 396.289,233.012 399.5,233.5C 399.669,272.158 388.169,306.825 365,337.5C 364.53,338.577 364.697,339.577 365.5,340.5C 392.299,310.138 405.965,274.471 406.5,233.5C 408.924,233.192 411.257,233.526 413.5,234.5C 414.204,275.22 402.204,311.72 377.5,344C 378.308,344.308 378.975,344.808 379.5,345.5C 378.674,346.451 378.508,347.451 379,348.5C 406.865,315.422 421.032,277.089 421.5,233.5C 423.833,233.5 426.167,233.5 428.5,233.5C 429.23,278.478 415.896,318.644 388.5,354C 390.061,354.318 391.228,355.151 392,356.5C 415.043,329.75 429.043,298.75 434,263.5C 435.209,253.53 436.042,243.53 436.5,233.5C 438.833,233.5 441.167,233.5 443.5,233.5C 444.113,280.489 430.447,322.656 402.5,360C 404.402,360.199 405.902,361.033 407,362.5C 437.228,324.987 452.062,281.987 451.5,233.5C 453.833,233.5 456.167,233.5 458.5,233.5C 459.234,281.589 445.9,325.256 418.5,364.5C 417.957,364.56 417.624,364.893 417.5,365.5C 418.689,366.429 420.022,366.762 421.5,366.5C 421.345,369.853 422.012,370.186 423.5,367.5C 444.239,341.002 457.739,311.002 464,277.5C 466.191,263.919 467.525,250.252 468,236.5C 469.94,233.392 472.606,232.725 476,234.5C 476.188,315.956 444.021,381.122 379.5,430C 337.37,459.491 290.703,473.824 239.5,473C 253.454,435.138 266.621,396.972 279,358.5C 278.623,349.84 278.29,341.174 278,332.5C 278.374,331.584 278.874,330.75 279.5,330C 318.43,309.651 338.763,277.484 340.5,233.5C 346.167,233.5 351.833,233.5 357.5,233.5C 357.761,241.582 357.095,249.582 355.5,257.5C 355.68,258.554 356.013,259.554 356.5,260.5C 356.154,261.696 355.654,261.696 355,260.5C 353.032,267.775 351.532,274.775 350.5,281.5 Z M 350.5,281.5 C 350.34,283.153 349.674,284.486 348.5,285.5C 348.229,283.62 348.896,282.287 350.5,281.5 Z M 348.5,285.5 C 348.34,287.153 347.674,288.486 346.5,289.5C 346.229,287.62 346.896,286.287 348.5,285.5 Z M 346.5,289.5 C 345.921,292.331 344.588,294.664 342.5,296.5C 343.079,293.669 344.412,291.336 346.5,289.5 Z M 342.5,296.5 C 342.573,298.027 341.906,299.027 340.5,299.5C 340.427,297.973 341.094,296.973 342.5,296.5 Z M 350.5,310.5 C 350.833,310.5 351.167,310.5 351.5,310.5C 351.262,312.404 350.262,313.738 348.5,314.5C 348.527,312.801 349.194,311.467 350.5,310.5 Z M 348.5,314.5 C 347.876,316.754 346.543,318.421 344.5,319.5C 345.136,317.205 346.469,315.539 348.5,314.5 Z M 343.5,320.5 C 343.262,322.404 342.262,323.738 340.5,324.5C 340.738,322.596 341.738,321.262 343.5,320.5 Z M 358.5,323.5 C 358.5,324.167 358.833,324.5 359.5,324.5C 358.557,327.109 356.89,329.109 354.5,330.5C 355.217,327.763 356.55,325.43 358.5,323.5 Z M 354.5,330.5 C 353.165,332.685 351.499,334.185 349.5,335C 350.411,332.585 352.078,331.085 354.5,330.5 Z M 365.5,340.5 C 364.562,343.045 363.229,343.545 361.5,342C 362.563,340.812 363.897,340.312 365.5,340.5 Z M 377.5,348.5 C 374.664,348.798 374.164,348.131 376,346.5C 376.717,347.044 377.217,347.711 377.5,348.5 Z M 295.5,394.5 C 290.601,396.97 285.435,398.97 280,400.5C 279.383,399.551 279.549,398.718 280.5,398C 285.555,396.986 290.555,395.819 295.5,394.5 Z M 313.5,402.5 C 311.574,404.293 309.241,405.293 306.5,405.5C 308.426,403.707 310.759,402.707 313.5,402.5 Z M 306.5,405.5 C 296.462,410.236 285.962,413.903 275,416.5C 274.342,414.892 274.842,413.725 276.5,413C 286.671,411.124 296.671,408.624 306.5,405.5 Z M 326.5,410.5 C 328.379,410.393 328.712,410.893 327.5,412C 309.065,422.368 289.398,428.701 268.5,431C 269.167,429.667 270.167,428.667 271.5,428C 291.373,425.512 309.707,419.679 326.5,410.5 Z M 341.5,419.5 C 334.981,423.928 327.981,427.594 320.5,430.5C 320.369,429.624 320.702,428.957 321.5,428.5C 328.188,425.488 334.855,422.488 341.5,419.5 Z M 320.5,430.5 C 302.618,439.555 283.618,444.722 263.5,446C 264.337,444.989 264.67,443.822 264.5,442.5C 279.501,441.083 294.168,438.083 308.5,433.5C 312.305,431.222 316.305,430.222 320.5,430.5 Z M 352.5,429.5 C 323.956,448.237 292.623,458.57 258.5,460.5C 259.115,458.616 260.448,457.616 262.5,457.5C 294.422,453.968 324.422,444.635 352.5,429.5 Z"/></g>
<g><path style="opacity:0.011" fill="#fefffe" d="M 374.5,235.5 C 375.613,236.946 375.78,238.613 375,240.5C 374.506,238.866 374.34,237.199 374.5,235.5 Z"/></g>
<g><path style="opacity:0.004" fill="#fefffe" d="M 388.5,249.5 C 389.833,250.167 389.833,250.167 388.5,249.5 Z"/></g>
<g><path style="opacity:0.004" fill="#fefffe" d="M 373.5,257.5 C 372.475,257.103 372.308,256.437 373,255.5C 373.464,256.094 373.631,256.761 373.5,257.5 Z"/></g>
<g><path style="opacity:0.02" fill="#fefffe" d="M 418.5,364.5 C 419.833,365.167 419.833,365.167 418.5,364.5 Z"/></g>
<g><path style="opacity:0.016" fill="#fefffe" d="M 423.5,367.5 C 422.833,366.167 422.833,366.167 423.5,367.5 Z"/></g>
</svg>
